<svg width="243" height="322" viewBox="0 0 243 322" fill="none" xmlns="http://www.w3.org/2000/svg">
<mask id="mask0_1543_7645" style="mask-type:luminance" maskUnits="userSpaceOnUse" x="0" y="0" width="243" height="322">
<path d="M0 0.447266H243V321.262H0V0.447266Z" fill="white"/>
</mask>
<g mask="url(#mask0_1543_7645)">
<path d="M152.166 206.284C152.166 240.292 165.503 260.551 182.797 278.467C189.102 285.004 195.945 291.228 202.853 297.706C209.761 291.233 216.605 285.01 222.91 278.467C240.199 260.551 253.541 240.292 253.541 206.284C253.541 179.65 238.89 155.974 222.91 138.079C219.146 133.858 215.296 129.955 211.56 126.414C210.117 125.048 208.598 123.758 207.048 122.587C204.549 120.692 201.093 120.746 198.594 122.641C197.065 123.801 195.574 125.07 194.152 126.414C190.416 129.955 186.566 133.858 182.802 138.079C166.827 155.968 152.171 179.644 152.171 206.284H152.166Z" fill="#A82785"/>
<path d="M84.0617 82.8353C51.7991 93.3454 36.707 112.32 25.05 134.344C20.7964 142.376 17.0059 150.824 13 159.412C21.2756 163.995 29.2928 168.6 37.4446 172.589C59.784 183.536 83.1249 189.998 115.387 179.488C140.656 171.256 158.586 149.971 170.619 129.21C173.462 124.314 175.977 119.44 178.179 114.781C179.03 112.984 179.783 111.137 180.419 109.297C181.442 106.328 180.327 103.046 177.754 101.254C176.181 100.158 174.518 99.1213 172.8 98.1821C168.283 95.7098 163.394 93.2482 158.225 90.9648C136.316 81.2591 109.33 74.6033 84.0617 82.8353Z" fill="#A82785"/>
<path d="M180.121 -20.2513C160.183 -47.7653 137.515 -56.2943 113.022 -60.6019C104.089 -62.1728 94.9035 -63.1768 85.5187 -64.3482C83.7258 -55.0419 81.8412 -45.9732 80.5705 -36.9692C77.0869 -12.2837 78.1745 11.9644 98.1125 39.4784C113.727 61.0275 139.464 71.5484 162.88 76.6064C168.404 77.8048 173.805 78.6954 178.904 79.354C180.874 79.6077 182.856 79.7589 184.794 79.7912C187.928 79.8506 190.695 77.7724 191.6 74.7656C192.154 72.9303 192.617 71.0194 192.984 69.0923C193.931 64.0235 194.755 58.5984 195.326 52.9628C197.759 29.0763 195.735 1.28702 180.121 -20.2621V-20.2513Z" fill="#A82785"/>
<path d="M307.6 39.4832C327.538 11.9692 328.625 -12.279 325.142 -36.9644C323.871 -45.9684 321.986 -55.0372 320.193 -64.3434C310.809 -63.1721 301.623 -62.1734 292.691 -60.5972C268.197 -56.2895 245.53 -47.7606 225.592 -20.2466C209.977 1.30257 207.947 29.0919 210.386 52.9784C210.957 58.6139 211.781 64.039 212.729 69.1078C213.095 71.0619 213.569 72.9998 214.134 74.8622C215.049 77.8689 217.871 79.8608 221.004 79.8014C222.921 79.7636 224.87 79.6179 226.814 79.3642C231.918 78.7002 237.313 77.8095 242.838 76.6165C266.254 71.5585 291.985 61.0377 307.605 39.4886L307.6 39.4832Z" fill="#A82785"/>
<path d="M290.321 179.495C322.584 190.005 345.92 183.549 368.264 172.596C376.416 168.601 384.433 164.002 392.709 159.419C388.703 150.836 384.913 142.383 380.659 134.35C369.002 112.326 353.91 93.3467 321.647 82.842C296.379 74.6099 269.393 81.2658 247.484 90.9715C242.315 93.2549 237.426 95.7164 232.909 98.1887C231.164 99.1442 229.474 100.191 227.885 101.303C225.317 103.101 224.299 106.415 225.322 109.379C225.952 111.193 226.69 113.012 227.53 114.782C229.738 119.441 232.247 124.315 235.09 129.211C247.123 149.972 265.058 171.262 290.321 179.489V179.495Z" fill="#A82785"/>
<path d="M117.39 254.478C107.704 247.358 105.711 234.133 109.001 226.829C103.089 232.222 89.9355 234.414 80.1899 227.38C69.4375 219.623 72.905 207.483 72.905 207.483C72.905 207.483 87.2056 208.352 105.911 202.322C124.616 196.293 140.015 184.017 140.015 184.017H140.009C140.009 184.017 133.128 202.506 133.198 222.203C133.268 241.901 138.518 255.261 138.518 255.261C138.518 255.261 128.078 262.327 117.39 254.473V254.478Z" fill="#FF7817"/>
<path d="M27.597 64.5694C31.3552 53.1309 43.2868 47.1498 51.234 48.0297C44.2883 44.0567 38.1448 32.1917 41.8061 20.7262C45.8443 8.07313 58.4328 7.63049 58.4328 7.63049C58.4328 7.63049 62.0241 21.5305 73.5249 37.5034C85.0258 53.4764 101.432 64.3643 101.432 64.3643H101.421C101.421 64.3643 81.7629 63.5114 63.101 69.6652C44.4391 75.819 33.3851 84.9525 33.3851 84.9525C33.3851 84.9525 23.4565 77.1793 27.6024 64.564L27.597 64.5694Z" fill="#FF7817"/>
</g>
</svg>
