<svg width="281" height="538" viewBox="0 0 281 538" fill="none" xmlns="http://www.w3.org/2000/svg">
<path d="M38.0998 378.469C38.0998 437.675 14.8218 472.944 -15.3634 504.135C-26.368 515.515 -38.3124 526.351 -50.3695 537.628C-62.4267 526.36 -74.3711 515.525 -85.3757 504.135C-115.552 472.944 -138.839 437.675 -138.839 378.469C-138.839 332.102 -113.268 290.884 -85.3757 259.73C-78.8068 252.381 -72.0875 245.587 -65.5656 239.422C-63.047 237.045 -60.3969 234.799 -57.6903 232.759C-53.3298 229.461 -47.2965 229.555 -42.936 232.853C-40.2671 234.874 -37.6639 237.082 -35.1829 239.422C-28.661 245.587 -21.9417 252.381 -15.3728 259.73C12.51 290.874 38.0904 332.092 38.0904 378.469H38.0998Z" fill="#A82783"/>
<path d="M156.97 163.555C213.281 181.852 239.622 214.885 259.968 253.227C267.392 267.211 274.008 281.918 281 296.87C266.556 304.848 252.563 312.865 238.335 319.809C199.344 338.868 158.605 350.117 102.295 331.82C58.1915 317.488 26.8974 280.433 5.89372 244.29C0.93177 235.766 -3.45696 227.28 -7.30059 219.17C-8.78542 216.041 -10.1011 212.827 -11.21 209.622C-12.9956 204.454 -11.0502 198.74 -6.55814 195.62C-3.81403 193.712 -0.910213 191.908 2.08763 190.273C9.97225 185.968 18.5054 181.683 27.5271 177.708C65.7661 160.811 112.867 149.224 156.97 163.555Z" fill="#A82783"/>
<path d="M-10.6928 -15.9114C24.1066 -63.8111 63.6707 -78.6594 106.42 -86.1587C122.011 -88.8934 138.043 -90.6414 154.424 -92.6807C157.553 -76.4791 160.842 -60.6911 163.06 -45.0159C169.14 -2.0405 167.242 40.1737 132.443 88.0734C105.189 125.589 60.2687 143.905 19.3984 152.71C9.75647 154.797 0.330635 156.347 -8.56892 157.494C-12.0085 157.935 -15.4667 158.199 -18.8499 158.255C-24.3193 158.358 -29.1497 154.74 -30.7285 149.506C-31.6965 146.311 -32.5047 142.984 -33.1438 139.629C-34.7977 130.804 -36.2356 121.36 -37.2317 111.549C-41.4794 69.9642 -37.9459 21.5851 -10.6928 -15.9302V-15.9114Z" fill="#A82783"/>
<path d="M-10.4879 -119.473C-31.454 -119.389 -47.7964 -102.802 -50.6251 -89.1377C-53.4538 -102.802 -69.7776 -119.379 -90.7343 -119.473C-113.862 -119.577 -121.38 -98.9206 -121.38 -98.9206C-121.38 -98.9206 -100.301 -85.4726 -80.0585 -57.7966C-59.816 -30.1206 -50.6345 2.97791 -50.6345 2.97791V2.95911C-50.6345 2.95911 -41.4343 -30.13 -21.1824 -57.7966C-0.930496 -85.4632 20.1578 -98.9018 20.1578 -98.9018C20.1578 -98.9018 12.6397 -119.558 -10.4785 -119.464L-10.4879 -119.473Z" fill="#FF7817"/>
<path d="M98.7984 462.372C115.705 449.976 119.182 426.952 113.44 414.237C123.759 423.625 146.717 427.441 163.727 415.196C182.494 401.691 176.442 380.556 176.442 380.556C176.442 380.556 151.482 382.069 118.834 371.572C86.1868 361.075 59.3096 339.704 59.3096 339.704H59.319C59.319 339.704 71.3292 371.891 71.207 406.183C71.0848 440.475 61.9221 463.734 61.9221 463.734C61.9221 463.734 80.1441 476.036 98.7984 462.362V462.372Z" fill="#FF7817"/>
<path d="M255.523 131.754C248.964 111.84 228.138 101.428 214.267 102.96C226.39 96.0429 237.113 75.3869 230.723 55.4263C223.674 33.3983 201.703 32.6277 201.703 32.6277C201.703 32.6277 195.435 56.8266 175.361 84.6342C155.288 112.442 126.653 131.397 126.653 131.397H126.672C126.672 131.397 160.983 129.912 193.555 140.625C226.127 151.339 245.421 167.239 245.421 167.239C245.421 167.239 262.75 153.707 255.514 131.745L255.523 131.754Z" fill="#FF7817"/>
</svg>
