<svg width="325" height="591" viewBox="0 0 325 591" fill="none" xmlns="http://www.w3.org/2000/svg">
<mask id="mask0_1607_10756" style="mask-type:luminance" maskUnits="userSpaceOnUse" x="0" y="0" width="325" height="591">
<path d="M325 0.371094H0V591H325V0.371094Z" fill="white"/>
</mask>
<g mask="url(#mask0_1607_10756)">
<path d="M74.9224 378.083C74.9224 428.556 55.0775 458.624 29.344 485.215C19.9623 494.917 9.77948 504.154 -0.499496 513.768C-10.7785 504.163 -20.9613 494.925 -30.343 485.215C-56.0685 458.624 -75.9214 428.556 -75.9214 378.083C-75.9214 338.553 -54.1216 303.414 -30.343 276.855C-24.7428 270.59 -19.0145 264.798 -13.4544 259.542C-11.3073 257.515 -9.04798 255.6 -6.74062 253.862C-3.0232 251.05 2.12035 251.13 5.83776 253.942C8.11308 255.665 10.3323 257.547 12.4474 259.542C18.0075 264.798 23.7358 270.59 29.336 276.855C53.1066 303.406 74.9144 338.545 74.9144 378.083H74.9224Z" fill="#A82783"/>
<path d="M176.263 194.867C224.269 210.466 246.725 238.627 264.071 271.315C270.4 283.236 276.04 295.774 282.001 308.521C269.687 315.323 257.757 322.157 245.628 328.077C212.387 344.325 177.657 353.915 129.651 338.316C92.052 326.098 65.3732 294.508 47.4671 263.695C43.2369 256.429 39.4954 249.194 36.2187 242.28C34.9528 239.612 33.8311 236.872 32.8858 234.14C31.3636 229.734 33.022 224.863 36.8516 222.203C39.191 220.577 41.6666 219.038 44.2223 217.644C50.9441 213.975 58.2188 210.322 65.91 206.933C98.5094 192.528 138.664 182.649 176.263 194.867Z" fill="#A82783"/>
<path d="M33.3233 41.8673C62.9905 1.03177 96.7196 -11.6267 133.165 -18.02C146.456 -20.3514 160.124 -21.8415 174.088 -23.5801C176.756 -9.76796 179.56 3.69165 181.451 17.0551C186.635 53.6925 185.016 89.6809 155.349 130.516C132.115 162.499 93.8194 178.114 58.9767 185.621C50.7567 187.399 42.721 188.721 35.1339 189.699C32.2017 190.075 29.2534 190.299 26.3692 190.348C21.7064 190.436 17.5884 187.351 16.2424 182.889C15.4172 180.165 14.7282 177.329 14.1834 174.468C12.7733 166.945 11.5476 158.894 10.6983 150.53C7.07705 115.078 10.0894 73.8338 33.3233 41.8512V41.8673Z" fill="#A82783"/>
<path d="M33.4991 -46.4215C15.6251 -46.3494 1.69279 -32.2088 -0.718723 -20.5599C-3.13024 -32.2088 -17.0466 -46.3414 -34.9126 -46.4215C-54.6293 -46.5097 -61.0386 -28.9 -61.0386 -28.9C-61.0386 -28.9 -43.0684 -17.4353 -25.8112 6.15905C-8.55409 29.7534 -0.726742 57.9705 -0.726742 57.9705V57.9545C-0.726742 57.9545 7.11665 29.7454 24.3818 6.15905C41.647 -17.4273 59.6251 -28.884 59.6251 -28.884C59.6251 -28.884 53.2158 -46.4937 33.5071 -46.4135L33.4991 -46.4215Z" fill="#FF7817"/>
<path d="M126.667 449.613C141.08 439.046 144.044 419.417 139.149 408.578C147.946 416.581 167.518 419.834 182.02 409.395C198.019 397.882 192.859 379.864 192.859 379.864C192.859 379.864 171.58 381.154 143.748 372.205C115.915 363.256 93.002 345.037 93.002 345.037H93.01C93.01 345.037 103.249 372.477 103.145 401.712C103.041 430.946 95.2292 450.775 95.2292 450.775C95.2292 450.775 110.764 461.262 126.667 449.605V449.613Z" fill="#FF7817"/>
<path d="M260.279 167.755C254.686 150.778 236.933 141.901 225.107 143.207C235.442 137.311 244.584 119.701 239.136 102.684C233.127 83.905 214.396 83.248 214.396 83.248C214.396 83.248 209.052 103.878 191.939 127.585C174.826 151.291 150.415 167.451 150.415 167.451H150.431C150.431 167.451 179.681 166.185 207.45 175.318C235.218 184.451 251.666 198.007 251.666 198.007C251.666 198.007 266.44 186.47 260.271 167.747L260.279 167.755Z" fill="#FF7817"/>
</g>
</svg>
