<svg width="630" height="360" viewBox="0 0 630 360" fill="none" xmlns="http://www.w3.org/2000/svg">
<path d="M398.781 340.9C398.781 397.135 376.671 430.635 348 460.262C337.548 471.071 326.202 481.363 314.75 492.074C303.298 481.372 291.953 471.08 281.5 460.262C252.838 430.635 230.719 397.135 230.719 340.9C230.719 296.858 255.007 257.708 281.5 228.118C287.739 221.137 294.122 214.684 300.316 208.828C302.709 206.57 305.226 204.436 307.796 202.5C311.938 199.366 317.669 199.456 321.811 202.589C324.346 204.508 326.818 206.606 329.175 208.828C335.37 214.684 341.752 221.137 347.991 228.118C374.475 257.699 398.772 296.849 398.772 340.9H398.781Z" fill="#961C65"/>
<path d="M511.685 136.767C565.171 154.146 590.191 185.522 609.516 221.941C616.568 235.223 622.852 249.193 629.493 263.394C615.773 270.972 602.482 278.587 588.968 285.183C551.933 303.285 513.238 313.97 459.752 296.591C417.862 282.978 388.137 247.782 368.187 213.452C363.474 205.356 359.306 197.296 355.655 189.592C354.245 186.62 352.995 183.567 351.942 180.523C350.246 175.614 352.093 170.187 356.36 167.223C358.967 165.411 361.725 163.697 364.572 162.144C372.061 158.056 380.166 153.986 388.735 150.21C425.056 134.161 469.794 123.155 511.685 136.767Z" fill="#961C65"/>
<path d="M352.433 -33.6961C385.487 -79.193 423.066 -93.2964 463.671 -100.419C478.48 -103.017 493.708 -104.677 509.266 -106.614C512.239 -91.2255 515.363 -76.2295 517.47 -61.3406C523.245 -20.521 521.442 19.5755 488.388 65.0723C462.502 100.706 419.835 118.103 381.015 126.467C371.857 128.448 362.904 129.921 354.45 131.01C351.183 131.43 347.899 131.68 344.685 131.733C339.49 131.831 334.902 128.395 333.403 123.423C332.483 120.388 331.715 117.228 331.108 114.041C329.537 105.66 328.172 96.6889 327.226 87.37C323.191 47.8716 326.547 1.91944 352.433 -33.714V-33.6961Z" fill="#961C65"/>
<path d="M141.097 65.0806C108.043 19.5838 106.24 -20.5127 112.016 -61.3323C114.122 -76.2212 117.246 -91.2172 120.219 -106.606C135.777 -104.669 151.005 -103.018 165.814 -100.411C206.419 -93.2881 243.999 -79.1847 277.052 -33.6878C302.938 1.94559 306.303 47.8977 302.26 87.3961C301.314 96.7151 299.948 105.686 298.377 114.068C297.77 117.299 296.984 120.503 296.047 123.583C294.53 128.555 289.852 131.849 284.657 131.75C281.48 131.688 278.248 131.447 275.026 131.027C266.564 129.929 257.62 128.457 248.462 126.484C209.642 118.12 166.983 100.723 141.088 65.0895L141.097 65.0806Z" fill="#961C65"/>
<path d="M169.741 296.6C116.255 313.98 77.5687 303.304 40.525 285.193C27.0107 278.587 13.7196 270.982 0 263.404C6.64109 249.211 12.9251 235.233 19.9768 221.951C39.3021 185.532 64.3223 154.147 117.808 136.777C159.699 123.164 204.437 134.17 240.758 150.22C249.327 153.995 257.432 158.066 264.921 162.154C267.813 163.734 270.616 165.466 273.249 167.304C277.507 170.277 279.194 175.758 277.498 180.658C276.453 183.657 275.23 186.665 273.838 189.593C270.178 197.296 266.019 205.357 261.306 213.453C241.356 247.783 211.622 282.988 169.741 296.592V296.6Z" fill="#961C65"/>
<path d="M47.6101 34.5002C41.5314 53.4684 51.7162 73.0971 63.231 79.6579C50.0559 78.2029 30.2844 88.0931 24.0539 106.99C17.1718 127.85 33.6228 140.704 33.6228 140.704C33.6228 140.704 51.9572 125.61 82.9043 115.443C113.851 105.285 146.441 106.704 146.441 106.704H146.423C146.423 106.704 119.234 88.6733 100.177 62.2607C81.128 35.8391 75.1743 12.8452 75.1743 12.8452C75.1743 12.8452 54.3048 13.5682 47.6012 34.4913L47.6101 34.5002Z" fill="#961C65"/>
<path d="M111.764 376.061C127.921 387.7 149.736 384.076 159.537 375.159C154.083 387.236 157.377 409.096 173.426 420.87C191.136 433.858 208.453 422.191 208.453 422.191C208.453 422.191 199.759 400.09 199.66 367.518C199.562 334.946 210.979 304.392 210.979 304.392H210.97C210.97 304.392 185.423 324.699 154.414 334.652C123.404 344.605 99.6959 343.159 99.6959 343.159C99.6959 343.159 93.9385 363.234 111.755 376.07L111.764 376.061Z" fill="#961C65"/>
<path d="M456.43 420.594C472.488 408.821 475.791 386.951 470.337 374.874C480.138 383.792 501.944 387.416 518.101 375.785C535.927 362.958 530.178 342.883 530.178 342.883C530.178 342.883 506.47 344.32 475.46 334.349C444.451 324.379 418.922 304.081 418.922 304.081H418.931C418.931 304.081 430.339 334.653 430.222 367.225C430.106 399.796 421.403 421.889 421.403 421.889C421.403 421.889 438.711 433.573 456.43 420.585V420.594Z" fill="#961C65"/>
<path d="M605.296 106.561C599.065 87.6467 579.285 77.7564 566.11 79.2114C577.624 72.6417 587.809 53.0219 581.739 34.0627C575.045 13.1397 554.175 12.4077 554.175 12.4077C554.175 12.4077 548.221 35.3927 529.155 61.8053C510.089 88.218 482.891 106.222 482.891 106.222H482.908C482.908 106.222 515.498 104.812 546.436 114.988C577.374 125.163 595.7 140.267 595.7 140.267C595.7 140.267 612.16 127.413 605.287 106.552L605.296 106.561Z" fill="#961C65"/>
</svg>
