<svg width="40" height="24" viewBox="0 0 40 24" fill="none" xmlns="http://www.w3.org/2000/svg">
<path fill-rule="evenodd" clip-rule="evenodd" d="M36.3853 -1.58006e-07C36.3853 -1.58006e-07 40.021 1.50773 39.9999 5.32567C39.9798 8.96037 36.9808 11.7502 34.6872 11.9974C36.9786 12.2505 39.9719 15.048 39.9834 18.6834C39.9955 22.5014 36.3567 24 36.3567 24C36.3567 24 35.0387 20.255 30.5091 16.9062C26.2664 13.7702 20.6166 12.1785 19.9954 11.9889C19.9522 11.9889 19.9298 11.9888 19.9298 11.9888C19.9298 11.9888 19.941 11.9856 19.9629 11.979C19.9421 11.9727 19.9314 11.9696 19.9314 11.9696C19.9314 11.9696 19.9528 11.9696 19.9939 11.9697C20.6157 11.7816 26.2694 10.2031 30.5195 7.07759C35.0582 3.73993 36.3853 -1.58006e-07 36.3853 -1.58006e-07Z" fill="white"/>
<path fill-rule="evenodd" clip-rule="evenodd" d="M3.61475 -1.58006e-07C3.61475 -1.58006e-07 -0.021024 1.50773 9.18539e-05 5.32567C0.020183 8.96037 3.01925 11.7502 5.31281 11.9974C3.02144 12.2505 0.0280645 15.048 0.0165732 18.6834C0.00450726 22.5014 3.6433 24 3.6433 24C3.6433 24 4.96129 20.255 9.49093 16.9062C13.7336 13.7702 19.3834 12.1785 20.0046 11.9889C20.0478 11.9889 20.0702 11.9888 20.0702 11.9888C20.0702 11.9888 20.059 11.9856 20.0371 11.979C20.0579 11.9727 20.0686 11.9696 20.0686 11.9696C20.0686 11.9696 20.0472 11.9696 20.0061 11.9697C19.3843 11.7816 13.7306 10.2031 9.48047 7.07759C4.94178 3.73993 3.61475 -1.58006e-07 3.61475 -1.58006e-07Z" fill="white"/>
</svg>
