<svg width="40" height="25" viewBox="0 0 40 25" fill="none" xmlns="http://www.w3.org/2000/svg">
<path fill-rule="evenodd" clip-rule="evenodd" d="M36.3853 0.446289C36.3853 0.446289 40.021 1.94243 39.9999 5.73103C39.9798 9.33779 36.9808 12.1062 34.6872 12.3515C36.9786 12.6026 39.9719 15.3787 39.9834 18.9861C39.9955 22.7747 36.3567 24.2618 36.3567 24.2618C36.3567 24.2618 35.0387 20.5456 30.5091 17.2225C26.2664 14.1106 20.6166 12.5312 19.9954 12.343C19.9522 12.343 19.9298 12.343 19.9298 12.343C19.9298 12.343 19.941 12.3397 19.9629 12.3332C19.9421 12.327 19.9314 12.3239 19.9314 12.3239C19.9314 12.3239 19.9528 12.3239 19.9939 12.324C20.6157 12.1374 26.2694 10.5709 30.5195 7.46948C35.0582 4.15747 36.3853 0.446289 36.3853 0.446289Z" fill="#FF7817"/>
<path fill-rule="evenodd" clip-rule="evenodd" d="M3.61475 0.446289C3.61475 0.446289 -0.021024 1.94243 9.18521e-05 5.73103C0.020183 9.33779 3.01925 12.1062 5.31281 12.3515C3.02144 12.6026 0.0280645 15.3787 0.0165732 18.9861C0.00450725 22.7747 3.6433 24.2618 3.6433 24.2618C3.6433 24.2618 4.96129 20.5456 9.49093 17.2225C13.7336 14.1106 19.3834 12.5312 20.0046 12.343C20.0478 12.343 20.0702 12.343 20.0702 12.343C20.0702 12.343 20.059 12.3397 20.0371 12.3332C20.0579 12.327 20.0686 12.3239 20.0686 12.3239C20.0686 12.3239 20.0472 12.3239 20.0061 12.324C19.3843 12.1374 13.7306 10.5709 9.48047 7.46948C4.94178 4.15747 3.61475 0.446289 3.61475 0.446289Z" fill="#FF7817"/>
</svg>
