<svg width="110" height="44" viewBox="0 0 110 44" fill="none" xmlns="http://www.w3.org/2000/svg">
<g clip-path="url(#clip0_1343_38937)">
<path d="M13.6547 38.8183V42.6998H12.5457V38.8183H11.0901V37.7786H15.1796V38.8183H13.6547ZM18.9225 42.7692C20.4474 42.7692 21.4871 41.6601 21.4871 40.2046C21.4871 38.749 20.5167 37.64 18.9918 37.64C17.4669 37.64 16.4272 38.749 16.4272 40.2046C16.4272 41.6601 17.3976 42.7692 18.9225 42.7692ZM18.9225 38.6797C19.6849 38.6797 20.2394 39.3035 20.2394 40.2046C20.2394 41.1056 19.6849 41.7295 18.9225 41.7295C18.16 41.7295 17.6055 41.1056 17.6055 40.2046C17.6055 39.3035 18.16 38.6797 18.9225 38.6797ZM27.1014 42.6998L25.9231 40.8284C26.4776 40.4818 26.7549 39.9966 26.7549 39.3728C26.7549 38.4717 26.1311 37.7093 24.6062 37.7093C24.0517 37.7093 23.5665 37.7093 23.1506 37.7786V42.6305H24.2596V41.0363H24.8834L25.7152 42.6305H27.1014V42.6998ZM24.8141 38.749C25.2993 38.749 25.6459 38.9569 25.6459 39.3728C25.6459 39.858 25.2993 40.1353 24.7448 40.1353H24.3982V38.749H24.8141ZM28.6263 42.6998H29.7353V37.7786H28.6263V42.6998ZM35.9042 42.7692V37.7786H34.7952V40.3432L31.8841 37.64H31.7454V42.6305H32.8544V40.0659L35.8349 42.7692H35.9042ZM40.2016 42.7692C41.7265 42.7692 42.7662 41.6601 42.7662 40.2046C42.7662 38.749 41.7958 37.64 40.271 37.64C38.7461 37.64 37.7064 38.749 37.7064 40.2046C37.7064 41.6601 38.6767 42.7692 40.2016 42.7692ZM40.2016 38.6797C40.9641 38.6797 41.5186 39.3035 41.5186 40.2046C41.5186 41.1056 40.9641 41.7295 40.2016 41.7295C39.4392 41.7295 38.8847 41.1056 38.8847 40.2046C38.8847 39.3035 39.4392 38.6797 40.2016 38.6797ZM44.2218 43.6009C44.707 43.393 45.1229 42.8385 45.1229 42.3533C45.1229 42.0067 44.9149 41.7295 44.5684 41.7295C44.2911 41.7295 44.0832 41.9374 44.0832 42.2146C44.0832 42.4919 44.2911 42.6998 44.6377 42.7692C44.5684 43.0464 44.4297 43.2543 44.1525 43.5316L44.2218 43.6009ZM47.8954 42.6998H49.0044V37.7786H47.8954V42.6998ZM54.6881 38.8183V37.7786H50.5986V38.8183H52.0542V42.6998H53.1632V38.8183H54.6881ZM59.8866 42.6998L57.5992 37.7093H57.4606L55.1733 42.6998H56.3516L56.6982 41.7988H58.431L58.7776 42.6998H59.8866ZM58.0151 40.8977H57.0447L57.5299 39.7194L58.0151 40.8977ZM64.3919 42.6998V41.6601H62.3819V37.7786H61.2728V42.6998H64.3919ZM65.9168 42.6998H67.0258V37.7786H65.9168V42.6998ZM73.264 42.6998L70.9767 37.7093H70.8381L68.5507 42.6998H69.729L70.0756 41.7988H71.8084L72.155 42.6998H73.264ZM71.3232 40.8977H70.3529L70.8381 39.7194L71.3232 40.8977ZM74.7889 43.6009C75.2741 43.393 75.69 42.8385 75.69 42.3533C75.69 42.0067 75.482 41.7295 75.1355 41.7295C74.8582 41.7295 74.6503 41.9374 74.6503 42.2146C74.6503 42.4919 74.8582 42.6998 75.2048 42.7692C75.1355 43.0464 74.9968 43.2543 74.7196 43.5316L74.7889 43.6009ZM79.8488 42.6998V37.7093H79.4329L77.5614 38.4024L77.908 39.3035L78.7398 38.9569V42.6998H79.8488ZM83.3837 42.7692C84.4928 42.7692 85.1859 42.1453 85.1859 41.3829C85.1859 40.8977 84.9779 40.4125 84.3541 40.2046C84.77 39.9966 85.0473 39.5807 85.0473 39.0956C85.0473 38.3331 84.4234 37.7093 83.3837 37.7093C82.344 37.7093 81.7202 38.3331 81.7202 39.0956C81.7202 39.5807 81.9282 39.9966 82.4134 40.2046C81.8589 40.4125 81.5816 40.8977 81.5816 41.3829C81.5816 42.1453 82.2747 42.7692 83.3837 42.7692ZM83.3837 40.6204C83.7303 40.6204 84.0076 40.8284 84.0076 41.175C84.0076 41.5215 83.7996 41.7295 83.3837 41.7295C83.0372 41.7295 82.7599 41.4522 82.7599 41.175C82.7599 40.8284 83.0372 40.6204 83.3837 40.6204ZM83.3837 38.6797C83.7996 38.6797 83.9382 38.9569 83.9382 39.3035C83.9382 39.6501 83.661 39.858 83.3837 39.858C83.0372 39.858 82.8292 39.6501 82.8292 39.3035C82.8292 38.8876 83.0372 38.6797 83.3837 38.6797ZM88.5129 37.64C87.2653 37.64 86.6415 38.541 86.6415 39.3728C86.6415 40.2739 87.2653 40.967 88.1664 40.967C88.5129 40.967 88.7209 40.8977 88.9288 40.7591C88.4436 41.2443 87.6812 41.6601 86.9187 41.9374L87.4039 42.8385C88.9981 42.1453 90.3151 41.3136 90.3151 39.5114C90.3151 38.541 89.6219 37.64 88.5129 37.64ZM88.5129 40.2046C88.097 40.2046 87.8198 39.858 87.8198 39.4421C87.8198 39.0262 88.097 38.6797 88.5129 38.6797C88.9288 38.6797 89.206 39.0262 89.206 39.4421C89.206 39.858 88.8595 40.2046 88.5129 40.2046ZM93.0876 42.7692C94.4739 42.7692 95.2363 42.0067 95.2363 41.0363C95.2363 40.2046 94.6818 39.5114 93.5728 39.5114H93.1569V38.749H95.0977V37.7093H92.0479V40.4818L92.1172 40.5511C92.3944 40.4818 92.8103 40.4125 93.0876 40.4125C93.7807 40.4125 94.1273 40.7591 94.1273 41.1056C94.1273 41.5215 93.7807 41.7295 93.0876 41.7295C92.741 41.7295 92.3945 41.6601 92.0479 41.5215L91.84 42.4919C92.1865 42.6998 92.6024 42.7692 93.0876 42.7692ZM12.3377 27.9361H18.2987L18.9225 25.0943H21.695V27.9361H27.7253V8.2512H16.6352L12.3377 27.9361ZM21.695 13.0338V20.0344H19.8236L21.695 13.0338ZM8.10964 21.8366H12.2684L10.9515 27.8668H0L4.43604 8.2512H11.2287L8.10964 21.8366ZM45.4694 8.2512L41.1027 27.8668H30.0126V8.2512H36.1122V22.1831L39.2313 8.2512H45.4694ZM105.633 8.2512H94.6125V27.8668H100.573V25.025H103.415L104.039 27.8668H110L105.633 8.2512ZM100.573 20.0344V13.0338L102.376 20.0344H100.573ZM92.741 22.1138L93.9193 27.9361H81.9282L83.1758 14.5587H79.017L77.908 8.32051H90.523L89.0674 22.1138H92.741ZM79.0863 22.1138L80.2646 27.9361H68.2735L69.5211 14.5587H65.3623L64.2533 8.32051H76.8683L75.4127 22.1138H79.0863ZM49.6282 0.00292969L43.3207 27.9361H51.0838L51.9849 23.1535H58.0844L58.9855 27.9361H66.6793L60.3718 0.00292969L49.6282 0.00292969ZM52.9553 16.9847L54.9653 6.31043L57.0447 16.9847H52.9553Z" fill="#4E3639"/>
</g>
<defs>
<clipPath id="clip0_1343_38937">
<rect width="110" height="43.604" fill="white"/>
</clipPath>
</defs>
</svg>
