<svg width="98" height="19" viewBox="0 0 98 19" fill="none" xmlns="http://www.w3.org/2000/svg">
<g clip-path="url(#clip0_1573_22839)">
<path d="M7.1813 5.26054C3.64194 5.26054 -0.00171953 8.22792 -0.00171953 11.9177C-0.0470482 12.4433 0.0187256 12.9727 0.191473 13.4711C0.364221 13.9695 0.640007 14.4262 1.00085 14.811C1.36169 15.1957 1.79955 15.4998 2.28586 15.7042C2.77217 15.9086 3.29607 16.0086 3.82345 15.9971C5.00527 15.9945 6.14065 15.5363 6.99325 14.7179C7.84585 13.8995 8.34996 12.7836 8.40081 11.6028C8.43132 11.2855 8.39715 10.9653 8.30018 10.6616C8.20321 10.3579 8.04555 10.0774 7.83678 9.83644C7.62802 9.59551 7.37248 9.39925 7.08568 9.26004C6.79889 9.12083 6.48677 9.04142 6.16832 9.02645C5.77929 9.03147 5.39594 9.12113 5.04492 9.28894C4.69389 9.45674 4.3836 9.69892 4.13539 9.99853L4.19955 10.0455C4.62621 9.65417 5.18036 9.4308 5.75917 9.41675C6.00306 9.41419 6.24483 9.46165 6.46962 9.55632C6.69441 9.65099 6.8974 9.79091 7.06597 9.96719C7.23454 10.1435 7.36513 10.3525 7.44966 10.5813C7.53419 10.8101 7.57087 11.0537 7.5574 11.2973C7.51932 12.1115 7.16968 12.8799 6.58091 13.4437C5.99214 14.0074 5.20923 14.3234 4.39409 14.3261C4.0684 14.3345 3.74457 14.2747 3.44306 14.1513C3.14155 14.0279 2.86895 13.8435 2.64262 13.6092C2.41629 13.3749 2.24115 13.096 2.1283 12.7904C2.01544 12.4848 1.96743 12.1587 1.98714 11.8335C1.98714 9.58291 4.28479 7.70471 6.44612 7.70471C6.9506 7.70636 7.44959 7.81018 7.91269 8.01029C8.37579 8.2104 8.79334 8.50251 9.14028 8.86876C9.48722 9.23502 9.7563 9.66778 9.93105 10.141C10.1058 10.6143 10.1827 11.1181 10.1571 11.6219C10.1571 15.0319 6.96968 17.7277 3.62389 17.7277C3.1926 17.7292 2.76268 17.6794 2.34316 17.5793L2.30802 17.6307C3.16035 18.0775 4.10979 18.307 5.0721 18.2987C7.06481 18.2399 8.96115 17.4274 10.3785 16.0255C11.7959 14.6235 12.6288 12.7363 12.7095 10.7444C12.7269 10.0157 12.5955 9.29124 12.3233 8.61509C12.0511 7.93894 11.6438 7.32529 11.1263 6.81196C10.6089 6.29862 9.99208 5.89658 9.31377 5.62979C8.63545 5.36299 7.90982 5.23728 7.1813 5.26054Z" fill="#87185A"/>
<path d="M19.6435 15.5659C20.7468 15.6753 21.8556 15.4198 22.7998 14.8387C23.063 14.6399 23.2757 14.3822 23.4206 14.086C23.5656 13.7897 23.6387 13.4632 23.6341 13.1335C23.6393 12.6696 23.4828 12.2187 23.1914 11.8578C22.9001 11.4968 22.4921 11.2487 22.0376 11.156V11.134C22.4083 11.025 22.735 10.8013 22.9706 10.4949C23.2061 10.1885 23.3384 9.8151 23.3484 9.42877C23.3547 9.10163 23.2687 8.77939 23.1004 8.4988C22.932 8.21821 22.6882 7.99057 22.3966 7.84209C21.6624 7.47452 20.8405 7.31825 20.0226 7.39009C19.2369 7.38471 18.452 7.44321 17.6758 7.5654V15.4425C18.3278 15.5312 18.9854 15.5725 19.6435 15.5659ZM19.4781 8.775C19.7325 8.72419 19.9921 8.70424 20.2513 8.71574C21.0717 8.71574 21.538 9.03451 21.538 9.64229C21.538 10.2501 21.0366 10.6335 20.0707 10.6335H19.4781V8.775ZM19.4781 11.9322H20.0949C20.9975 11.9322 21.7276 12.2551 21.7276 13.0625C21.7276 13.9109 21.0015 14.2319 20.1791 14.2319C19.9445 14.2417 19.7095 14.2298 19.4771 14.1966L19.4781 11.9322ZM26.8877 12.5341H27.7362L29.1764 15.4768H31.1523L29.4813 12.0252V11.9895C29.9014 11.8088 30.2611 11.5115 30.5177 11.133C30.7743 10.7544 30.9172 10.31 30.9296 9.85286C30.9296 8.54403 29.9828 7.38666 27.5056 7.38666C26.6961 7.3776 25.8872 7.4366 25.0875 7.56247V15.4768H26.8877V12.5341ZM26.8877 8.80683C27.1595 8.75396 27.4365 8.73339 27.7131 8.74562C28.5455 8.74562 29.0471 9.19625 29.0471 9.92338C29.0471 10.6505 28.5978 11.227 27.5367 11.227H26.8877V8.80683ZM34.1931 13.4136H36.4998L37.1187 15.4768H39.0744L36.5721 7.44493H34.2001L31.744 15.4768H33.6264L34.1931 13.4136ZM34.9433 10.3524C35.0646 9.88801 35.194 9.28022 35.3014 8.80683H35.3385C35.4558 9.26718 35.5972 9.87598 35.7316 10.3524L36.233 12.0576H34.458L34.9433 10.3524ZM41.8886 15.4768H40.2158V7.44493H42.337L44.0048 10.3896C44.4959 11.281 44.9339 12.2007 45.3167 13.1437H45.3408C45.2357 12.0263 45.1877 10.9042 45.1973 9.78185V7.44493H46.8662V15.4768H44.9606L43.2447 12.3813C42.727 11.4623 42.2619 10.515 41.8515 9.54336H41.8025C41.8616 10.6145 41.8846 11.7498 41.8846 13.0536L41.8886 15.4768ZM54.4354 14.5247C54.8829 14.1146 55.2336 13.6101 55.4622 13.0478C55.6908 12.4854 55.7916 11.8791 55.7573 11.273C55.7951 10.6921 55.6917 10.1108 55.4557 9.57862C55.2197 9.04641 54.8583 8.5792 54.4023 8.21721C53.4262 7.57844 52.2638 7.28587 51.1017 7.38666C50.2832 7.37783 49.4653 7.43683 48.6565 7.56247V15.4395C49.3406 15.527 50.0299 15.5676 50.7196 15.561C52.0396 15.6521 53.351 15.2879 54.4354 14.5296V14.5247ZM50.4688 8.85237C50.7388 8.79832 51.014 8.77414 51.2892 8.78088C51.6342 8.73939 51.984 8.7771 52.3125 8.89057C52.6409 9.00405 52.9393 9.19051 53.1852 9.43612C53.431 9.68172 53.6177 9.97996 53.7314 10.3083C53.8452 10.6366 53.8828 10.9863 53.8416 11.3313C53.8908 11.706 53.8544 12.0873 53.7352 12.4459C53.616 12.8045 53.4171 13.1316 53.1534 13.4023C52.8897 13.6731 52.5682 13.8805 52.2128 14.0091C51.8574 14.1377 51.4775 14.184 51.1017 14.1447C50.89 14.1528 50.6781 14.1403 50.4688 14.1075V8.85237ZM62.1479 15.4714H57.033V7.44004H61.9775V8.92926H58.8433V10.5982H61.4399V12.0747H58.8433V13.9802H62.146L62.1479 15.4714ZM63.0034 15.4714L65.3263 11.4087L63.0857 7.44004H65.1739L65.8759 8.90722C66.1176 9.39465 66.293 9.78893 66.4836 10.2392H66.5067C66.7013 9.72775 66.8557 9.37359 67.0573 8.90722L67.7373 7.44004H69.8094L67.5468 11.3617L69.9288 15.4733H67.8317L67.1044 14.0203C66.8036 13.4637 66.619 13.0425 66.3893 12.5781H66.3683C66.1998 13.0425 65.9953 13.4637 65.7335 14.0203L65.0785 15.4733L63.0034 15.4714ZM72.8483 12.5923C73.0538 12.6266 73.2619 12.6422 73.4701 12.6393C74.4178 12.6921 75.3513 12.3901 76.0888 11.7926C76.3359 11.543 76.5284 11.2446 76.6539 10.9165C76.7794 10.5885 76.8353 10.238 76.8179 9.88714C76.828 9.535 76.7566 9.18518 76.6094 8.86511C76.4623 8.54503 76.2433 8.26349 75.9694 8.0419C75.2485 7.54505 74.3778 7.31297 73.5053 7.38568C72.684 7.37238 71.863 7.42809 71.0511 7.55218V15.4758H72.8483V12.5923ZM72.8483 8.82299C73.0958 8.77625 73.3478 8.75664 73.5995 8.76472C74.5182 8.76472 75.0197 9.20735 75.0197 9.9415C75.0197 10.7569 74.4179 11.2402 73.4561 11.2402C73.2523 11.2481 73.0484 11.2324 72.8483 11.1932V8.82299ZM83.1686 15.4714H78.0535V7.44004H83.0021V8.92926H79.8689V10.5982H82.4624V12.0747H79.8689V13.9802H83.1686V15.4714ZM93.3815 8.96452H91.211V7.44004H97.3851V8.96452H95.1917V15.4714H93.3865L93.3815 8.96452ZM86.5614 12.5292H87.41L88.8501 15.4714H90.8299L89.1571 12.0203V11.9841C89.5769 11.8033 89.9363 11.5062 90.1926 11.1276C90.4488 10.749 90.5914 10.305 90.6033 9.84797C90.6033 8.53913 89.6585 7.38176 87.1823 7.38176C86.3718 7.37277 85.5619 7.43177 84.7611 7.55757V15.4714H86.5665L86.5614 12.5292ZM86.5614 8.80193C86.8325 8.74902 87.109 8.72845 87.3849 8.74072C88.2213 8.74072 88.7207 9.19136 88.7207 9.91848C88.7207 10.6456 88.2734 11.2221 87.2103 11.2221H86.5614V8.80193Z" fill="#87185A"/>
</g>
<defs>
<clipPath id="clip0_1573_22839">
<rect width="97.3862" height="13.0382" fill="white" transform="translate(0 5.26172)"/>
</clipPath>
</defs>
</svg>
