<svg width="40" height="24" viewBox="0 0 40 24" fill="none" xmlns="http://www.w3.org/2000/svg">
<path fill-rule="evenodd" clip-rule="evenodd" d="M36.3853 -1.58006e-07C36.3853 -1.58006e-07 40.021 1.49614 39.9999 5.28474C39.9798 8.8915 36.9808 11.6599 34.6872 11.9052C36.9786 12.1563 39.9719 14.9324 39.9834 18.5398C39.9955 22.3285 36.3567 23.8155 36.3567 23.8155C36.3567 23.8155 35.0387 20.0993 30.5091 16.7763C26.2664 13.6644 20.6166 12.0849 19.9954 11.8967C19.9522 11.8967 19.9298 11.8967 19.9298 11.8967C19.9298 11.8967 19.941 11.8935 19.9629 11.887C19.9421 11.8807 19.9314 11.8776 19.9314 11.8776C19.9314 11.8776 19.9528 11.8777 19.9939 11.8777C20.6157 11.6911 26.2694 10.1247 30.5195 7.02319C35.0582 3.71119 36.3853 -1.58006e-07 36.3853 -1.58006e-07Z" fill="white"/>
<path fill-rule="evenodd" clip-rule="evenodd" d="M3.61475 -1.58006e-07C3.61475 -1.58006e-07 -0.021024 1.49614 9.18521e-05 5.28474C0.020183 8.8915 3.01925 11.6599 5.31281 11.9052C3.02144 12.1563 0.0280645 14.9324 0.0165732 18.5398C0.00450725 22.3285 3.6433 23.8155 3.6433 23.8155C3.6433 23.8155 4.96129 20.0993 9.49093 16.7763C13.7336 13.6644 19.3834 12.0849 20.0046 11.8967C20.0478 11.8967 20.0702 11.8967 20.0702 11.8967C20.0702 11.8967 20.059 11.8935 20.0371 11.887C20.0579 11.8807 20.0686 11.8776 20.0686 11.8776C20.0686 11.8776 20.0472 11.8777 20.0061 11.8777C19.3843 11.6911 13.7306 10.1247 9.48047 7.02319C4.94178 3.71119 3.61475 -1.58006e-07 3.61475 -1.58006e-07Z" fill="white"/>
</svg>
