<svg width="180" height="55" viewBox="0 0 180 55" fill="none" xmlns="http://www.w3.org/2000/svg">
<path d="M26.085 4.0367L18.3418 0.261719L0 7.69174C0 31.4145 5.57751 46.6077 26.0817 54.7375" fill="#87185A"/>
<path d="M26.085 4.0367L33.8282 0.261719L52.17 7.69174C52.17 31.4145 46.5925 46.6077 26.0883 54.7375" fill="#87185A"/>
<path d="M30.841 36.6076C30.841 39.7896 29.5882 41.6887 27.9656 43.3646C27.3725 43.9777 26.7328 44.5608 26.0831 45.1638C25.4367 44.5574 24.7937 43.9744 24.2006 43.3646C22.578 41.6887 21.3252 39.7896 21.3252 36.6076C21.3252 34.1154 22.7013 31.8997 24.2006 30.2238C24.5538 29.8273 24.9136 29.4642 25.2668 29.131C25.4034 29.0044 25.5433 28.8811 25.6899 28.7711C25.9231 28.5945 26.2497 28.5979 26.4829 28.7778C26.6262 28.8878 26.7661 29.0044 26.8994 29.131C27.2492 29.4642 27.6124 29.8273 27.9656 30.2238C29.4649 31.8997 30.841 34.1154 30.841 36.6076Z" fill="#FAECDC"/>
<path d="M37.2357 25.0537C40.2644 26.0366 41.6804 27.8125 42.7733 29.8749C43.1731 30.6279 43.5296 31.4175 43.9028 32.2205C43.1264 32.6503 42.3734 33.0801 41.6071 33.4533C39.5114 34.4795 37.319 35.0826 34.2937 34.0997C31.9214 33.33 30.2388 31.3376 29.1093 29.3918C28.8428 28.932 28.6062 28.4788 28.3997 28.0424C28.3197 27.8724 28.2497 27.7025 28.1898 27.5293C28.0931 27.2527 28.1997 26.9429 28.4396 26.7763C28.5862 26.673 28.7428 26.5764 28.9061 26.4897C29.3292 26.2598 29.789 26.0266 30.2755 25.8134C32.3312 24.9038 34.8634 24.2807 37.2357 25.0537Z" fill="#FAECDC"/>
<path d="M28.2206 15.4031C30.0931 12.8275 32.2188 12.0279 34.5178 11.6247C35.3574 11.4781 36.217 11.3849 37.1 11.2749C37.2666 12.1445 37.4465 12.9941 37.5631 13.8371C37.8896 16.1461 37.7863 18.4184 35.9172 20.9939C34.4512 23.0097 32.0356 23.9959 29.8399 24.469C29.3201 24.5823 28.8137 24.6656 28.3372 24.7256C28.154 24.7489 27.9674 24.7622 27.7841 24.7656C27.4909 24.7722 27.231 24.5756 27.1444 24.2958C27.0911 24.1225 27.0478 23.9459 27.0145 23.766C26.9245 23.2929 26.8479 22.7831 26.7946 22.2567C26.5647 20.021 26.7546 17.4188 28.2206 15.4031Z" fill="#FAECDC"/>
<path d="M16.2584 20.994C14.3859 18.4185 14.286 16.1495 14.6125 13.8372C14.7324 12.9943 14.909 12.1446 15.0756 11.275C15.9552 11.385 16.8182 11.4783 17.6578 11.6249C19.9568 12.028 22.0825 12.8277 23.955 15.4032C25.421 17.4189 25.6109 20.0211 25.381 22.2568C25.3277 22.7832 25.2511 23.293 25.1611 23.7661C25.1278 23.9494 25.0812 24.1293 25.0279 24.3059C24.9412 24.5858 24.678 24.7723 24.3815 24.769C24.2016 24.7657 24.0183 24.7524 23.8351 24.729C23.3553 24.6657 22.8488 24.5824 22.3324 24.4725C20.1367 23.9994 17.7211 23.0131 16.2551 20.9974L16.2584 20.994Z" fill="#FAECDC"/>
<path d="M17.8757 34.0987C14.847 35.0816 12.658 34.4786 10.5623 33.4524C9.79593 33.0792 9.04625 32.6494 8.2666 32.2196C8.6431 31.4166 8.99961 30.6236 9.3961 29.8739C10.4889 27.8115 11.905 26.0356 14.9336 25.0528C17.3059 24.2831 19.8381 24.9062 21.8939 25.8124C22.3803 26.0257 22.8368 26.2556 23.2633 26.4888C23.4265 26.5787 23.5864 26.6754 23.7364 26.782C23.9763 26.9519 24.0729 27.2618 23.9763 27.5383C23.9163 27.7082 23.8463 27.8782 23.7697 28.0448C23.5631 28.4812 23.3266 28.9377 23.06 29.3942C21.9305 31.3366 20.2479 33.3291 17.8757 34.1021V34.0987Z" fill="#FAECDC"/>
<path d="M28.2316 9.83389C27.1054 9.83722 26.2258 10.7302 26.0725 11.4665C25.9193 10.7335 25.043 9.84056 23.9168 9.83389C22.6741 9.82723 22.2676 10.9401 22.2676 10.9401C22.2676 10.9401 23.4004 11.6631 24.4899 13.1524C25.5794 14.6418 26.0725 16.421 26.0725 16.421C26.0725 16.421 26.5657 14.6418 27.6552 13.1524C28.7447 11.6631 29.8775 10.9434 29.8775 10.9434C29.8775 10.9434 29.4744 9.8339 28.2316 9.83723V9.83389Z" fill="#FFB300"/>
<path d="M10.9704 19.2627C10.6272 20.3355 11.2036 21.4484 11.8533 21.8182C11.107 21.7349 9.98747 22.2947 9.6343 23.3642C9.24447 24.5437 10.1774 25.2733 10.1774 25.2733C10.1774 25.2733 11.2136 24.4204 12.9661 23.844C14.7187 23.2676 16.5612 23.3475 16.5612 23.3475C16.5612 23.3475 15.0219 22.328 13.9424 20.832C12.8629 19.336 12.5263 18.0366 12.5263 18.0366C12.5263 18.0366 11.3435 18.0765 10.967 19.2627H10.9704Z" fill="#FFB300"/>
<path d="M14.5977 38.5982C15.5139 39.2579 16.7467 39.0513 17.3031 38.5482C16.9933 39.2312 17.1798 40.4707 18.0894 41.1371C19.0923 41.8734 20.0719 41.2104 20.0719 41.2104C20.0719 41.2104 19.5788 39.9609 19.5754 38.1151C19.5688 36.2726 20.2152 34.5433 20.2152 34.5433C20.2152 34.5433 18.7691 35.6928 17.0133 36.2559C15.2574 36.819 13.9146 36.739 13.9146 36.739C13.9146 36.739 13.5881 37.8752 14.5977 38.6015V38.5982Z" fill="#FFB300"/>
<path d="M34.1095 41.12C35.0191 40.4536 35.2057 39.2142 34.8958 38.5311C35.4523 39.0376 36.685 39.2408 37.598 38.5844C38.6075 37.8581 38.281 36.7219 38.281 36.7219C38.281 36.7219 36.9383 36.8019 35.1824 36.2388C33.4265 35.6757 31.9805 34.5262 31.9805 34.5262C31.9805 34.5262 32.6269 36.2555 32.6202 38.1013C32.6135 39.9438 32.1204 41.1966 32.1204 41.1966C32.1204 41.1966 33.1 41.8563 34.1029 41.1233L34.1095 41.12Z" fill="#FFB300"/>
<path d="M42.5353 23.3411C42.1821 22.2716 41.0626 21.7118 40.3163 21.7918C40.9693 21.4186 41.5457 20.3091 41.2026 19.2363C40.8227 18.0534 39.6433 18.0101 39.6433 18.0101C39.6433 18.0101 39.3067 19.3129 38.2272 20.8055C37.1477 22.3015 35.6084 23.3211 35.6084 23.3211C35.6084 23.3211 37.4542 23.2411 39.2035 23.8175C40.956 24.394 41.9922 25.2469 41.9922 25.2469C41.9922 25.2469 42.9251 24.5206 42.5353 23.3378V23.3411Z" fill="#FFB300"/>
<path d="M65.268 37.7249V17.304H75.9332V20.4959H68.9297V25.2704H74.4972V28.3757H68.9297V34.4097H76.5163V37.7215H65.2646L65.268 37.7249Z" fill="#87185A"/>
<path d="M81.0605 37.7249V17.304H84.7822V34.503H90.8762V37.7249H81.0605Z" fill="#87185A"/>
<path d="M94.9746 37.7249V17.304H100.426C102.828 17.304 104.577 17.7804 105.67 18.7333C106.763 19.6862 107.309 21.0256 107.309 22.7549C107.309 23.5278 107.123 24.3142 106.753 25.1138C106.383 25.9135 105.77 26.5165 104.92 26.9163C106.083 27.1995 106.943 27.766 107.499 28.6156C108.055 29.4652 108.335 30.5381 108.335 31.8375C108.335 33.6333 107.719 35.066 106.489 36.1289C105.26 37.1951 103.268 37.7249 100.512 37.7249H94.9746ZM100.426 20.206H98.6663V25.8601H101.039C101.702 25.8601 102.228 25.7002 102.615 25.3837C103.001 25.0672 103.274 24.6773 103.434 24.2109C103.594 23.7477 103.677 23.3013 103.677 22.8715C103.677 22.1685 103.524 21.6254 103.218 21.2389C102.911 20.8524 102.508 20.5858 102.008 20.4326C101.512 20.2826 100.982 20.206 100.426 20.206ZM100.749 28.5856H98.6696V34.7662H100.925C101.512 34.7662 102.075 34.6895 102.618 34.5329C103.161 34.3763 103.604 34.0731 103.951 33.6233C104.297 33.1735 104.47 32.5105 104.47 31.6309C104.47 30.7513 104.287 30.0816 103.921 29.6451C103.554 29.212 103.084 28.9254 102.515 28.7888C101.945 28.6522 101.355 28.5823 100.749 28.5823V28.5856Z" fill="#87185A"/>
<path d="M126.004 37.7249H121.463L116.219 30.3415V37.7249H112.497V17.304H118.181C119.567 17.304 120.807 17.5072 121.903 17.9104C122.996 18.3168 123.862 18.9932 124.495 19.9394C125.128 20.8857 125.448 22.1751 125.448 23.8077C125.448 24.6973 125.298 25.6136 125.002 26.5532C124.705 27.4961 124.212 28.339 123.522 29.0787C122.832 29.8217 121.903 30.3381 120.73 30.6314L126.004 37.7215V37.7249ZM116.219 28.4956H117.771C118.631 28.4956 119.351 28.2924 119.934 27.8892C120.514 27.4828 120.953 26.953 121.253 26.2933C121.55 25.6336 121.7 24.9239 121.7 24.1609C121.7 22.8415 121.396 21.8586 120.79 21.2089C120.184 20.5592 119.151 20.236 117.685 20.236H116.219V28.499V28.4956Z" fill="#87185A"/>
<path d="M137.02 38.1053C135.68 38.1053 134.464 37.872 133.365 37.4089C132.265 36.9458 131.389 36.1528 130.736 35.0366C130.083 33.9171 129.753 32.3845 129.753 30.4287V17.3045H133.561V30.8418C133.561 31.9947 133.748 32.8609 134.124 33.4407C134.501 34.0204 134.951 34.4136 135.48 34.6135C136.007 34.8134 136.5 34.9134 136.96 34.9134C137.42 34.9134 137.933 34.8167 138.446 34.6202C138.959 34.4236 139.392 34.0371 139.742 33.454C140.095 32.8743 140.268 32.0013 140.268 30.8385V17.3012H144.077V30.4254C144.077 32.3778 143.76 33.9138 143.124 35.0333C142.487 36.1528 141.638 36.9425 140.568 37.4056C139.499 37.8687 138.316 38.1019 137.016 38.1019L137.02 38.1053Z" fill="#87185A"/>
<path d="M154.335 38.0482C152.899 38.0482 151.643 37.8083 150.57 37.3318C149.497 36.852 148.711 36.3489 148.211 35.8225L149.704 32.7472C149.91 33.0104 150.233 33.3103 150.677 33.6401C151.12 33.9733 151.639 34.2632 152.229 34.5131C152.819 34.763 153.432 34.8862 154.068 34.8862C154.801 34.8862 155.438 34.6797 155.981 34.2698C156.524 33.86 156.794 33.2536 156.794 32.454C156.794 31.6544 156.514 31.0346 155.951 30.5715C155.388 30.1084 154.625 29.5819 153.659 28.9955C152.869 28.5157 152.093 28.006 151.33 27.4662C150.567 26.9231 149.937 26.2601 149.434 25.4738C148.931 24.6874 148.681 23.6946 148.681 22.4918C148.681 20.8792 149.197 19.5531 150.227 18.5135C151.256 17.474 152.752 16.9542 154.718 16.9542C155.714 16.9542 156.561 17.0708 157.26 17.3074C157.96 17.5406 158.526 17.8105 158.959 18.1137C159.393 18.4169 159.719 18.6668 159.932 18.86L158.293 21.8487C158.157 21.6521 157.927 21.4156 157.603 21.1324C157.28 20.8492 156.887 20.5993 156.417 20.386C155.947 20.1728 155.431 20.0628 154.865 20.0628C154.075 20.0628 153.482 20.2894 153.085 20.7425C152.689 21.1957 152.492 21.7321 152.492 22.3452C152.492 23.1348 152.782 23.7812 153.365 24.2776C153.945 24.7741 154.651 25.2739 155.481 25.7703C156.397 26.3167 157.247 26.8665 158.03 27.4196C158.81 27.9727 159.443 28.629 159.919 29.3987C160.399 30.165 160.635 31.1446 160.635 32.3374C160.635 34.1232 160.072 35.5226 158.95 36.5355C157.827 37.5451 156.287 38.0515 154.335 38.0515V38.0482Z" fill="#87185A"/>
<path d="M164.997 37.7249V17.304H168.719V27.4694L175.223 17.304H179.531L172.574 27.4428L180 37.7249H175.312L168.719 27.9259V37.7249H164.997Z" fill="#87185A"/>
</svg>
